<?xml version="1.0" encoding="UTF-8" standalone="no"?>
<!-- Created with Inkscape (http://www.inkscape.org/) -->

<svg
   width="600mm"
   height="350mm"
   viewBox="0 0 600 350"
   version="1.1"
   id="svg1"
   xml:space="preserve"
   inkscape:version="1.4.3 (0d15f75042, 2025-12-25)"
   sodipodi:docname="Mat.svg"
   inkscape:export-filename="Chillin.png"
   inkscape:export-xdpi="180"
   inkscape:export-ydpi="180"
   xmlns:inkscape="http://www.inkscape.org/namespaces/inkscape"
   xmlns:sodipodi="http://sodipodi.sourceforge.net/DTD/sodipodi-0.dtd"
   xmlns="http://www.w3.org/2000/svg"
   xmlns:svg="http://www.w3.org/2000/svg"><sodipodi:namedview
     id="namedview1"
     pagecolor="#505050"
     bordercolor="#eeeeee"
     borderopacity="1"
     inkscape:showpageshadow="0"
     inkscape:pageopacity="0"
     inkscape:pagecheckerboard="0"
     inkscape:deskcolor="#505050"
     inkscape:document-units="mm"
     inkscape:zoom="0.57452426"
     inkscape:cx="1122.668"
     inkscape:cy="697.0985"
     inkscape:window-width="1854"
     inkscape:window-height="1131"
     inkscape:window-x="0"
     inkscape:window-y="0"
     inkscape:window-maximized="1"
     inkscape:current-layer="g17"
     showgrid="false" /><defs
     id="defs1"><rect
       x="76.367532"
       y="1148.3414"
       width="890.95454"
       height="93.338095"
       id="rect6" /><rect
       x="113.8928"
       y="967.12358"
       width="1486.3975"
       height="262.53255"
       id="rect13" /><rect
       x="53.234583"
       y="926.82774"
       width="1590.2125"
       height="341.24733"
       id="rect12" /><rect
       x="53.234585"
       y="926.82776"
       width="1590.2125"
       height="341.24734"
       id="rect12-8" /><style
       id="style1">
      .cls-1 {
        fill: #a6637c;
        stroke: #191919;
        stroke-miterlimit: 10;
        stroke-width: 3px;
      }
    </style></defs><g
     inkscape:label="Layer 1"
     inkscape:groupmode="layer"
     id="layer1"><rect
       style="display:inline;fill:#000000;fill-opacity:1;stroke-width:0.0752718"
       id="rect3"
       width="600"
       height="350"
       x="0"
       y="0"
       inkscape:label="Solid" /><g
       id="g2"
       inkscape:label="Backgrounds" /><g
       id="g16"
       inkscape:label="Mat Overlay V1"><rect
         style="display:none;fill:none;stroke:#ce0000;stroke-width:2.811;stroke-linecap:round;stroke-linejoin:round;stroke-miterlimit:2.4;stroke-dasharray:2.811, 8.433;stroke-dashoffset:0;stroke-opacity:1"
         id="rect1"
         width="571.18915"
         height="321.18912"
         x="14.405436"
         y="14.405436"
         inkscape:label="Bounds?"
         sodipodi:insensitive="true" /><g
         id="g14"
         inkscape:label="Outlines"
         style="display:inline"><g
           id="g18"
           inkscape:label="Command, Tax Library &amp; Exile"><rect
             style="display:inline;fill:none;stroke:#ffffff;stroke-width:3.00203;stroke-linecap:round;stroke-linejoin:round;stroke-miterlimit:2.4;stroke-dasharray:none;stroke-dashoffset:0;stroke-opacity:0.242339"
             id="rect7"
             width="64.997971"
             height="89.997971"
             x="446.00101"
             y="245.50102"
             inkscape:label="Exile" /><rect
             style="display:inline;fill:none;stroke:#ffffff;stroke-width:2.99753;stroke-linecap:round;stroke-linejoin:round;stroke-miterlimit:2.4;stroke-dasharray:none;stroke-dashoffset:0;stroke-opacity:0.242339"
             id="rect8"
             width="64.803024"
             height="89.998566"
             x="446.09848"
             y="146.09848"
             inkscape:label="Library" /><rect
             style="display:inline;fill:none;stroke:#ffffff;stroke-width:3.11787;stroke-linecap:round;stroke-linejoin:round;stroke-miterlimit:2.4;stroke-dasharray:none;stroke-dashoffset:0;stroke-opacity:0.242339"
             id="rect9"
             width="64.882126"
             height="23.101765"
             x="446.05893"
             y="14.558936"
             inkscape:label="Tax" /><rect
             style="display:inline;fill:none;stroke:#ffffff;stroke-width:3.00693;stroke-linecap:round;stroke-linejoin:round;stroke-miterlimit:2.4;stroke-dasharray:none;stroke-dashoffset:0;stroke-opacity:0.242339"
             id="rect10"
             width="64.993073"
             height="90.298531"
             x="446.00345"
             y="46.503464"
             inkscape:label="Command Zone" /></g><g
           id="g19"
           inkscape:label="Graveyard &amp; Life Total"><rect
             style="display:inline;fill:none;stroke:#ffffff;stroke-width:3.00203;stroke-linecap:round;stroke-linejoin:round;stroke-miterlimit:2.4;stroke-dasharray:none;stroke-dashoffset:0;stroke-opacity:0.242339"
             id="rect2"
             width="64.997971"
             height="122.30343"
             x="520.50104"
             y="14.501015"
             inkscape:label="Life Total" /><rect
             style="display:inline;fill:none;stroke:#ffffff;stroke-width:3.00203;stroke-linecap:round;stroke-linejoin:round;stroke-miterlimit:2.4;stroke-dasharray:none;stroke-dashoffset:0;stroke-opacity:0.242339"
             id="rect11"
             width="64.997971"
             height="189.52747"
             x="520.50104"
             y="145.97151"
             inkscape:label="Graveyard" /></g><g
           id="g17"
           inkscape:label="Battlefield &amp; Land"><rect
             style="display:inline;fill:none;stroke:#ffffff;stroke-width:3.00184;stroke-linecap:round;stroke-linejoin:round;stroke-miterlimit:2.4;stroke-dasharray:none;stroke-dashoffset:0;stroke-opacity:0.242339"
             id="rect4"
             width="420.77234"
             height="89.998154"
             x="14.500921"
             y="245.50093"
             inkscape:label="Lands" /><rect
             style="display:inline;fill:none;stroke:#ffffff;stroke-width:3.00095;stroke-linecap:round;stroke-linejoin:round;stroke-miterlimit:2.4;stroke-dasharray:none;stroke-dashoffset:0;stroke-opacity:0.242339"
             id="rect14"
             width="420.72037"
             height="221.64169"
             x="14.55334"
             y="14.55334"
             inkscape:label="Battlefield" /><text
             xml:space="preserve"
             style="font-style:normal;font-variant:normal;font-weight:600;font-stretch:normal;font-size:7.7611px;line-height:0;font-family:Montserrat;-inkscape-font-specification:'Montserrat Semi-Bold';text-align:start;letter-spacing:0.0105833px;writing-mode:lr-tb;direction:ltr;text-anchor:start;fill:#ffffff;fill-opacity:0.243137;stroke-width:0.0329999"
             x="19.176577"
             y="330.77277"
             id="text15"
             inkscape:label="Attribution"><tspan
               sodipodi:role="line"
               style="font-style:normal;font-variant:normal;font-weight:600;font-stretch:normal;font-family:Montserrat;-inkscape-font-specification:'Montserrat Semi-Bold';stroke-width:0.033"
               x="19.176577"
               y="330.77277"
               id="tspan15">AXODOUBLE.COM</tspan></text><g
             id="g15"
             inkscape:label="Iconography"
             style="display:inline;fill:#ffffff;fill-opacity:0.477873"><path
               d="m -75.928588,-401.76007 -7.51953,4.03516 c -4.53555,2.43371 -8.96014,4.9253 -13.42969,7.67578 l -1.58985,0.98047 -0.19726,0.19726 c -35.633472,22.22051 -65.771672,52.3587 -87.992192,87.99219 l -0.20898,0.20898 -0.98438,1.60547 c -11.90381,19.42792 -21.4803,40.36978 -28.24609,62.57422 -4.72023,15.17921 -8.11084,30.84896 -10.09571,46.96875 -16.0032,-5.69796 -32.72934,-9.99258 -49.96484,-12.65625 l -1.20703,-0.18554 h -0.51367 c -13.08612,-1.87795 -26.58029,-2.96875 -40.34766,-2.96875 -54.26727,0 -104.99683,15.76602 -147.64649,43.11133 l -7.52539,4.82617 0.21094,8.9375 c 1.01067,42.78499 11.80305,83.346009 30.60937,119.185551 23.56037,45.797066 59.66062,83.971429 103.75001,110.136724 -0.18695,0.16725 -0.65378,0.61712 -1.49024,1.73242 -0.0586,0.0781 -0.15963,0.28539 -0.22461,0.37304 -38.44094,45.317595 -62.34815,103.373315 -64.80273,166.746095 l -0.002,0.0606 -0.002,0.0586 c -0.10599,3.39174 -0.2207,6.94882 -0.2207,10.67188 0,21.91898 2.58614,43.31731 7.55273,63.74804 l 2.25196,9.26368 9.23242,2.38086 c 21.86857,5.63624 44.73566,8.55859 68.30664,8.55859 6.80732,0 13.78097,-0.22475 20.83594,-0.9043 9.55734,-0.58249 18.8969,-1.82071 28.00586,-3.48633 45.14788,-8.03439 86.40621,-27.12263 120.94726,-54.30664 15.13332,28.46079 37.06096,52.71426 63.621102,70.60938 l 8.92578,6.01367 8.90039,-6.05078 c 26.43301,-17.96692 48.31859,-42.20139 63.4433606,-70.58594 34.5464294,27.19212 75.8150794,46.28518 120.9726574,54.32031 9.10657,1.66494 18.44334,2.904 27.99805,3.48633 7.05496,0.67955 14.03057,0.9043 20.83789,0.9043 23.57098,0 46.55794,-2.9189 68.48633,-8.68359 l 9.16992,-2.41211 2.24023,-9.21289 c 4.96341,-20.41766 7.55078,-41.7236 7.55078,-63.64258 0,-3.72306 -0.11275,-7.28011 -0.21875,-10.67188 l -0.002,-0.0586 -0.002,-0.0606 c -2.45448,-63.37036 -26.36522,-121.43586 -64.91796,-166.757805 -0.0627,-0.0845 -0.1601,-0.28573 -0.2168,-0.36133 -0.62244,-0.82993 -1.05614,-1.30889 -1.31836,-1.57422 0.16945,0.19615 0.33888,0.39145 0.50781,0.58789 l -0.6875,-0.74219 -0.125,-0.13476 c 0.0141,0.0141 0.0592,0.0525 0.13867,0.12695 0.006,-0.003 0.0119,-0.006 0.0176,-0.01 44.07227,-26.160784 80.16609,-64.318614 103.8125,-110.080075 l 0.008,-0.01367 c 18.68022,-35.789411 29.61156,-76.1697 30.62322,-119.10915 l 0.21094,-8.9375 -7.52539,-4.82618 c -42.64368,-27.34147 -93.46273,-43.21679 -147.75195,-43.21679 -14.29582,0 -28.32118,1.12435 -41.875,3.14062 l -0.0391,0.006 -0.0391,0.006 c -17.28719,2.65957 -34.017028,6.90859 -50.078128,12.66602 -1.98556,-16.11115 -5.37997,-31.80333 -10.10937,-47.00586 -6.28926,-20.63189 -15.11573,-40.25444 -26.10547,-58.60157 v -0.44336 l -2.34766,-3.82617 c -22.43849,-36.57472 -53.33171,-67.50669 -89.86718,-90.00391 l -0.37696,-0.24023 c 0.0932,0.0572 0.18614,0.11457 0.2793,0.17187 l -0.21094,-0.14062 -0.12109,-0.0762 c -4.5621,-2.92442 -9.16371,-5.56722 -13.78125,-8.04492 z m -0.0762,36.40039 c 1.36995,0.81679 2.8411,1.58111 4.16602,2.42969 l 0.375,0.25 0.25586,0.15625 c 31.18655,19.13286 57.73875,45.35504 77.4179706,76.18164 v 0.0371 l 2.41211,3.86523 c 10.7058894,17.14926 19.1366894,35.68901 25.0937494,55.24805 l 0.0137,0.0469 0.0137,0.0469 c 5.06779,16.28335 8.28556,33.21432 9.76367,50.72461 0.002,0.0264 0.006,0.0536 0.008,0.0801 -40.8230394,20.35468 -75.86734,50.46368 -101.76563,87.453131 -6.52072,9.057287 -12.41463,18.517724 -17.69922,28.320312 l -0.002,-0.002 c -0.003,0.006 -0.007,0.01157 -0.01,0.01758 -5.28852,-9.84443 -11.17598,-19.335379 -17.6289,-28.425781 -26.074612,-36.870892 -61.120232,-66.982862 -101.890632,-87.271482 0.007,-0.0804 0.0127,-0.1599 0.0195,-0.24024 1.48314,-17.52575 4.69888,-34.41389 9.75391,-50.65625 l 0.0137,-0.0469 0.0137,-0.0469 c 5.9081,-19.39829 14.27641,-37.73592 24.72656,-54.86133 l 0.42579,-0.69336 c 19.99383,-32.52729 47.46882,-60.00225 79.996092,-79.99609 l 0.69336,-0.42578 c 1.23549,-0.75639 2.57788,-1.46089 3.83398,-2.19141 z m -242.220702,191.83594 c 12.62613,0 25.09715,0.99548 37.19336,2.79492 l 0.40039,0.0586 c 19.1976,2.99923 37.73338,8.29479 55.17383,15.49804 l 0.043,0.0176 c 2.27608,0.94057 4.5337,1.91325 6.77148,2.91797 h 0.002 c 39.86098,17.89271 74.12166,46.36954 99.09571,81.691413 l 0.008,0.01172 0.01,0.01367 c 9.15863,12.90173 17.03183,26.684522 23.476562,41.19922 -0.0204,0.01781 -0.0402,0.0349 -0.0606,0.05273 0.003,0.0072 0.007,0.01431 0.01,0.02148 -0.0881,0.07711 -0.18764,0.135175 -0.27539,0.21289 -2.04832,1.777241 -3.991972,3.689714 -5.810552,5.728516 -3.63716,4.077605 -6.77663,8.658827 -9.26758,13.664063 -1.24547,2.502618 -2.32836,5.111535 -3.23047,7.8164066 -1.77264,4.948429 -2.75542,9.97133 -3.16601,14.8984374 l -0.004,0.05078 -0.004,0.05078 c -0.11077,1.440079 -0.25782,3.265526 -0.25782,5.458984 0,4.851063 0.58854,9.466693 1.53321,13.785157 l 0.008,0.03906 0.008,0.03711 c 1.38463,6.184692 3.7557,12.019196 6.82422,17.433594 0.002,0.0027 0.002,0.0051 0.004,0.0078 -0.0231,0.02233 -0.0453,0.04407 -0.0684,0.06641 -1.50126,1.452944 -3.01561,2.932639 -4.29688,4.146485 l -0.79687,0.753906 -0.66407,0.832031 c -0.006,0.0078 -0.0132,0.0155 -0.0195,0.02344 l 0.0176,-0.02344 c 0.27312,-0.342189 0.4348,-0.560606 0.48438,-0.648437 0.007,-0.0125 0.0114,-0.02432 0.0137,-0.03125 2.7e-4,-9.3e-4 0.002,-0.005 0.002,-0.0059 v -0.002 -0.002 h -0.002 v -0.002 h -0.002 c -0.0447,-0.0023 -0.49933,0.489019 -1.32617,1.498047 0.1996,-0.20201 0.40077,-0.402698 0.60157,-0.603516 l -1.16211,1.296875 c 0.19684,-0.246003 0.37606,-0.469955 0.54296,-0.673828 -3.76593,3.81288 -7.31867,7.837591 -10.66015,12.058594 -2.79553,3.350548 -5.36822,6.804415 -7.83594,10.296875 -0.0302,0.008 -0.0596,0.0172 -0.0898,0.0254 -0.0394,0.0558 -0.0798,0.11017 -0.11914,0.16602 -19.94839,5.41386 -41.01704,8.34538 -62.6836,8.41211 -0.25188,8e-4 -0.5038,0.002 -0.75586,0.002 -8.61196,0 -17.16623,-0.49393 -25.67187,-1.39453 l -0.0273,-0.004 -0.0273,-0.002 c -14.55279,-1.49005 -28.73311,-4.29576 -42.42188,-8.2832 -13.68933,-3.987127 -26.88563,-9.156469 -39.4707,-15.373052 -0.006,-0.0031 -0.0133,-0.0047 -0.0195,-0.0078 -0.39192,-0.196903 -0.50324,-0.255014 -0.55274,-0.279297 l -0.27929,-0.185547 -0.86524,-0.435547 C -353.53745,38.588307 -390.95599,1.5643826 -414.31422,-43.85992 l -0.0312,-0.0625 -0.0312,-0.06055 c -15.22939,-28.999679 -24.43102,-61.54882 -26.53125,-96.08594 36.01321,-21.23314 77.80627,-33.45508 122.6836,-33.45508 z m 484.48829,0 c 44.85806,0 86.75418,12.31127 122.78711,33.56055 -2.10938,34.57661 -11.3773,66.95211 -26.54883,96.015629 l -0.0156,0.03125 -0.0156,0.03125 C 239.00124,1.5605334 201.57394,38.588557 155.93274,61.5583 l -0.86524,0.435547 -0.28125,0.1875 c -0.0508,0.02499 -0.15844,0.08028 -0.55078,0.277344 h -0.002 l -0.002,0.002 c -25.17349,12.43694 -52.7969,20.681421 -81.908208,23.662111 l -0.0273,0.002 -0.0273,0.004 c -8.50564,0.9006 -17.05991,1.39453 -25.67187,1.39453 h -0.002 c -21.93184,-3e-5 -43.2576994,-2.93563 -63.43751,-8.41211 -0.0396,-0.0562 -0.0795,-0.11183 -0.11914,-0.16797 -0.0298,-0.008 -0.0581,-0.0173 -0.0879,-0.0254 -2.47659,-3.50504 -5.05844,-6.971982 -7.86523,-10.333984 -3.34053,-4.217028 -6.89185,-8.237486 -10.65625,-12.046876 0.17415,0.212553 0.36495,0.447894 0.57226,0.707032 l -1.17187,-1.310547 c 0.19549,0.195486 0.38963,0.391274 0.58398,0.58789 -0.33993,-0.414418 -0.413,-0.477577 -0.62109,-0.714843 -0.23811,-0.271463 -0.59909,-0.702833 -0.6582,-0.748047 -0.003,-0.0025 -0.007,-0.006 -0.01,-0.0078 l -0.002,-0.002 h -0.002 c -10e-4,-6.79e-4 -0.003,-0.0015 -0.004,-0.002 l -0.002,-0.002 h -0.002 -0.002 -0.002 -0.002 v 0.002 h -0.002 v 0.002 0.002 l 0.002,0.002 c 0.002,0.0067 0.008,0.02096 0.0156,0.03516 0.0484,0.08618 0.21327,0.310486 0.48437,0.65039 l -0.66797,-0.833984 -0.79492,-0.753906 c -1.28127,-1.213839 -2.79554,-2.693468 -4.29687,-4.146485 -0.0235,-0.02277 -0.0468,-0.0456 -0.0703,-0.06836 0.001,-0.0022 0.003,-0.0036 0.004,-0.0059 3.06849,-5.414399 5.43959,-11.248912 6.82422,-17.433594 l 0.008,-0.03711 0.01,-0.03906 c 0.94467,-4.318464 1.5332,-8.934094 1.5332,-13.785157 0,-2.193458 -0.14899,-4.018905 -0.25976,-5.458984 l -0.004,-0.05078 -0.004,-0.05078 c -0.20666,-2.480024 -0.55768,-4.9871716 -1.08007,-7.4941397 -0.52262,-2.5076099 -1.21711,-5.01695594 -2.11524,-7.5078129 -3.6365,-10.5422304 -9.93747,-20.0332744 -18.54297,-27.2519534 3.87819,-8.701395 8.2812,-17.072217 13.14649,-25.128907 2.42366,-4.013475 4.96253,-7.948946 7.60742,-11.808594 0.94248,-1.372644 1.73002,-2.854471 2.70312,-4.205078 l 0.0645,-0.0918 0.0645,-0.08984 c 6.18465,-8.842305 12.96237,-17.252672 20.27344,-25.173828 0.02,-0.0217 0.0425,-0.0408 0.0625,-0.0625 h 0.002 c 6.5362906,-7.076414 13.6332406,-13.618784 20.9804702,-19.873054 2.2863198,-1.9442 4.6776598,-3.76223 7.0371098,-5.62109 5.41166,-4.26873 11.01793,-8.29218 16.79297,-12.09375 2.7358,-1.7964 5.43978,-3.63459 8.25195,-5.32031 6.81612,-4.09839 13.88007,-7.81217 21.11328,-11.23437 1.48704,-0.69948 2.88133,-1.55908 4.38477,-2.22852 l 0.0703,-0.0312 0.0684,-0.0312 c 19.53461,-8.92444 40.346128,-15.17218 62.333988,-18.55859 12.08419,-1.79582 24.54351,-2.79102 37.15625,-2.79102 z m -242.357428,169.062508 0.43359,0.416015 0.32227,0.1621104 c 2.62175,2.427522 4.85486,5.4036 6.52344,8.830078 0.55587,1.1416729 1.05095,2.333875 1.47461,3.572266 l 0.0488,0.144531 0.0527,0.142578 c 0.71487,1.9658936 1.20624,4.2744956 1.42578,6.8925776 0.0964,1.269422 0.16016,2.388858 0.16016,2.935547 0,2.343897 -0.26151,4.502362 -0.79492,6.951172 -1.05294,4.674366 -3.14404,9.002363 -6.08594,12.744141 -0.98752,1.161757 -1.83168,2.136782 -2.41602,2.726563 l -0.0351,0.03711 -0.9961,0.996094 -0.99609,-0.996094 c -0.006,-0.0065 -0.015,-0.01493 -0.0215,-0.02148 -0.58625,-0.589154 -1.43493,-1.570746 -2.43554,-2.748047 -2.93959,-3.740508 -5.02961,-8.066234 -6.08203,-12.738282 -0.53341,-2.44881 -0.79493,-4.607275 -0.79493,-6.951172 0,-0.546689 0.0658,-1.666123 0.16211,-2.935547 0.21954,-2.618082 0.70896,-4.926684 1.42383,-6.8925776 l 0.084,-0.232422 0.0781,-0.232422 c 0.0277,-0.08416 0.0555,-0.168104 0.084,-0.251953 1.62611,-4.78633 4.55691,-9.06458304 8.38476,-12.5507814 z m -11.57812,77.294923 h 0.002 v 0.002 h 0.002 c 1.52578,0.921078 3.09542,1.777217 4.70313,2.564451 0.0189,0.009 0.0377,0.0181 0.0566,0.0273 l 7.14453,3.49023 7.08008,-3.62305 c 1.49433,-0.764543 2.95801,-1.584056 4.38867,-2.457028 0.001,-6.93e-4 0.003,-0.0013 0.004,-0.002 1.18217,1.144935 2.44234,2.382901 3.79101,3.673831 -0.21053,-0.25502 -0.44815,-0.54799 -0.71289,-0.87891 l 1.45313,1.57813 c 0.001,0.002 0.003,0.004 0.004,0.006 l 0.01,0.01 v 0.002 l 0.002,0.002 v 0.002 h 0.002 l 0.002,0.002 0.45507,0.56836 0.62305,0.62305 c 3.16274,3.16274 6.13893,6.51178 8.9375,10.05664 l 0.14258,0.17969 0.14648,0.17578 c 2.53152,3.02376 4.92126,6.17194 7.16211,9.40234 0.75171,1.08366 1.4874,2.176895 2.20508,3.277345 l 0.0586,0.0898 0.0586,0.0898 c 0.85094,1.26706 1.68428,2.54528 2.5,3.83594 16.04432,25.38579 25.21875,55.28693 25.21875,87.67188 0,12.29218 -1.3544,24.25222 -3.95117,35.69726 l -0.0274,0.11719 -0.0234,0.11719 c -1.81272,8.58659 -4.39067,16.90488 -7.66016,24.98242 l -0.0215,0.0508 -0.0195,0.0488 c -0.25735,0.64847 -0.51966,1.29498 -0.78515,1.93945 -10.96332,26.61348 -28.82941,49.79967 -51.24219,67.32422 -22.29949,-17.31866 -40.063322,-40.28656 -51.046882,-66.75195 -0.34405,-0.82901 -0.68104,-1.66029 -1.01171,-2.49609 l -0.0215,-0.0566 -0.0234,-0.0586 c -3.26949,-8.07754 -5.84743,-16.39583 -7.66015,-24.98242 l -0.0254,-0.11719 -0.0273,-0.11719 c -2.59678,-11.44504 -3.95117,-23.40508 -3.95117,-35.69726 0,-32.38461 9.17279,-62.28431 25.2168,-87.66993 0.81588,-1.29093 1.65084,-2.57057 2.50195,-3.83789 l 0.0606,-0.0898 0.0586,-0.0898 c 0.70209,-1.07655 1.41982,-2.146525 2.1543,-3.207025 2.25444,-3.25514 4.66097,-6.42686 7.21094,-9.47266 l 0.14648,-0.17578 0.14258,-0.17969 c 2.798572,-3.54486 5.774772,-6.8939 8.937502,-10.05664 l 0.62305,-0.62305 0.45507,-0.56836 0.002,-0.002 v -0.002 h 0.002 v -0.002 l 0.002,-0.002 h 0.002 v -0.002 l 0.002,-0.002 c 0.001,-0.001 0.003,-0.003 0.004,-0.004 v -0.002 l 1.43164,-1.55274 c -0.25303,0.31599 -0.48277,0.60006 -0.68555,0.8457 1.34737,-1.28993 2.609,-2.528627 3.79102,-3.673824 z M 157.53625,96.019235 c 1.69091,1.84145 3.43555,3.56293 5.10743,5.492185 l 0.98828,1.15039 c 34.50349,40.17121 55.87208,91.69752 58.06836,148.26172 0.10481,3.35568 0.20312,6.55322 0.20312,9.58399 0,16.03571 -1.64336,31.59116 -4.64453,46.64453 -16.38241,3.56706 -33.42504,5.49804 -50.99609,5.49804 -6.22948,0 -12.28934,-0.20459 -18.05274,-0.77148 l -0.30469,-0.0293 -0.30664,-0.0195 c -8.14252,-0.48468 -16.29808,-1.55702 -24.47461,-3.05273 l -0.0391,-0.008 -0.041,-0.008 C 80.197552,301.14598 41.440252,282.17755 9.5772422,255.22593 c -0.0358,-0.0303 -0.0716,-0.0595 -0.10742,-0.0899 2.1065898,-6.32001 3.9959498,-12.73778 5.3964798,-19.35742 3.10322,-13.73232 4.70898,-28.00254 4.70898,-42.57617 0,-27.40939 -5.7051,-53.48278 -15.8632794,-77.22071 -0.0147,-0.0344 -0.0282,-0.0692 -0.043,-0.10351 0.0494,0.008 0.099,0.0157 0.14844,0.0234 0.78515,0.12355 1.59375,0.16775 2.38086,0.28515 13.2149594,1.96091 26.6848794,3.14453 40.3984394,3.14453 9.82261,0 19.49255,-0.56459 28.99805,-1.57031 28.867408,-2.95913 56.439248,-10.48802 81.941398,-21.742185 z m -467.03321,0.002 c 1.0242,0.45196 2.15864,0.68315 3.18946,1.12304 11.17124,4.767185 22.68467,8.898455 34.56445,12.171875 4.54926,1.25339 9.16448,2.33721 13.80469,3.35742 2.45441,0.53961 4.86933,1.18355 7.34766,1.65625 7.57156,1.44411 15.23315,2.63204 23.00781,3.42969 0.008,8.2e-4 0.0157,9.5e-4 0.0234,0.002 9.50539,1.0057 19.17553,1.57031 28.99804,1.57031 13.7286,-2e-5 27.21262,-1.18524 40.44141,-3.15039 0.77277,-0.11538 1.56703,-0.15799 2.33789,-0.27929 0.049,-0.008 0.0995,-0.0157 0.14844,-0.0234 -0.0146,0.0341 -0.0303,0.0674 -0.0449,0.10156 -10.08019,23.55541 -15.77235,49.41162 -15.85938,76.58985 -6.6e-4,0.2108 0,0.42185 0,0.63281 0,14.57363 1.6038,28.84385 4.70703,42.57617 0.0122,0.0575 0.0229,0.11435 0.0352,0.17188 1.39672,6.55847 3.27311,12.92061 5.36133,19.18554 -0.0358,0.0303 -0.0716,0.0615 -0.10743,0.0918 -31.86296,26.9515 -70.62044,45.91812 -113.46679,53.5332 l -0.0391,0.008 -0.0391,0.008 c -8.17653,1.49571 -16.33403,2.56805 -24.47656,3.05273 l -0.30664,0.0195 -0.30469,0.0293 c -5.7634,0.56689 -11.8213,0.77148 -18.05078,0.77148 -17.55072,0 -34.51705,-1.91868 -50.89649,-5.42773 -2.99645,-15.06559 -4.63867,-30.68918 -4.63867,-46.71484 0,-3.03077 0.0964,-6.22828 0.20117,-9.58399 2.19628,-56.5642 23.57013,-108.10303 57.97852,-148.2793 l 0.93359,-1.08984 c 1.64902,-1.899275 3.43918,-3.680945 5.15039,-5.533195 z"
               style="baseline-shift:baseline;display:inline;overflow:visible;opacity:1;vector-effect:none;fill:#ffffff;fill-opacity:0.243137;stroke-miterlimit:10;enable-background:accumulate;stop-color:#000000;stop-opacity:1"
               id="path14"
               transform="matrix(0.26458333,0,0,0.26458333,245.00295,130.58326)"
               inkscape:label="Ceraia Flower Battlefield Central" /></g></g></g></g></g></svg>
